<svg xmlns="http://www.w3.org/2000/svg" xmlns:xlink="http://www.w3.org/1999/xlink" width="200" zoomAndPan="magnify" viewBox="75 180 250 10" height="70" preserveAspectRatio="xMidYMid meet" version="1.0"><defs><g/></defs><g fill="#000000" fill-opacity="1"><g transform="translate(90.36328, 197.149324)"><g><path d="M 9.539062 -11.542969 C 8.058594 -12.242188 6.601562 -12.242188 6.472656 -12.242188 C 5.148438 -12.242188 3.875 -13.023438 3.875 -14.53125 C 3.875 -16.195312 5.042969 -17.050781 6.472656 -17.050781 C 7.824219 -17.050781 8.96875 -16.351562 9.019531 -14.867188 C 9.019531 -14.792969 9.148438 -14.660156 9.304688 -14.660156 L 12.554688 -14.660156 C 12.738281 -14.660156 12.867188 -14.792969 12.839844 -14.867188 C 12.789062 -18.40625 10.035156 -20.796875 6.472656 -20.796875 C 3.144531 -20.796875 0 -18.429688 0 -14.53125 C 0 -12.113281 1.222656 -10.269531 3.378906 -9.28125 C 4.886719 -8.578125 6.289062 -8.578125 6.472656 -8.578125 C 7.640625 -8.527344 9.070312 -7.589844 9.070312 -6.058594 C 9.070312 -4.679688 7.851562 -3.742188 6.472656 -3.742188 C 6.472656 -3.742188 6.472656 -3.742188 6.445312 -3.742188 L 6.445312 0 C 6.472656 0 6.472656 0 6.472656 0 C 9.800781 0 12.917969 -2.15625 12.917969 -6.058594 C 12.917969 -8.5 11.722656 -10.527344 9.539062 -11.542969 Z M 9.539062 -11.542969 "/></g></g></g><g fill="#000000" fill-opacity="1"><g transform="translate(103.931211, 197.149324)"><g><path d="M 16.585938 -0.390625 L 8.242188 -10.214844 L 16.507812 -20.40625 C 16.6875 -20.589844 16.558594 -20.796875 16.273438 -20.796875 L 12.035156 -20.796875 C 11.984375 -20.796875 11.828125 -20.742188 11.800781 -20.71875 L 3.976562 -11.101562 L 3.976562 -20.5625 C 3.976562 -20.667969 3.875 -20.796875 3.71875 -20.796875 L 0.285156 -20.796875 C 0.128906 -20.796875 0 -20.667969 0 -20.5625 L 0 -1.273438 C 0 -1.273438 5.070312 -7.019531 5.589844 -7.566406 L 11.644531 -0.078125 C 11.671875 -0.0507812 11.828125 0 11.878906 0 L 16.351562 0 C 16.609375 0 16.742188 -0.183594 16.585938 -0.390625 Z M 16.585938 -0.390625 "/></g></g></g><g fill="#000000" fill-opacity="1"><g transform="translate(121.423974, 197.149324)"><g><path d="M 11.957031 -10.347656 C 11.957031 -11.4375 11.101562 -12.320312 10.007812 -12.320312 C 8.917969 -12.320312 8.058594 -11.4375 8.058594 -10.347656 C 8.058594 -9.28125 8.917969 -8.394531 10.007812 -8.394531 C 11.101562 -8.394531 11.957031 -9.28125 11.957031 -10.347656 Z M 20.015625 -10.425781 C 20.015625 -15.597656 16.664062 -20.796875 10.035156 -20.796875 C 3.300781 -20.796875 0 -15.597656 0 -10.425781 C 0 -5.226562 3.300781 0 10.035156 0 C 16.664062 0 20.015625 -5.226562 20.015625 -10.425781 Z M 16.117188 -10.347656 C 16.117188 -6.992188 14.0625 -3.640625 10.035156 -3.640625 C 5.953125 -3.640625 3.925781 -6.992188 3.925781 -10.347656 C 3.925781 -13.75 5.953125 -17.128906 10.035156 -17.128906 C 14.0625 -17.128906 16.117188 -13.75 16.117188 -10.347656 Z M 16.117188 -10.347656 "/></g></g></g><g fill="#000000" fill-opacity="1"><g transform="translate(142.425678, 197.149324)"><g><path d="M 14.191406 -0.339844 C 12.894531 -3.222656 11.488281 -6.082031 10.191406 -9.019531 C 12.269531 -9.773438 14.011719 -11.4375 14.011719 -14.609375 C 14.011719 -20.742188 8.164062 -20.796875 6.992188 -20.796875 L 0.261719 -20.796875 C 0.128906 -20.796875 0 -20.667969 0 -20.5625 L 0 -17.027344 L 6.992188 -17.027344 C 7.617188 -17.027344 10.058594 -16.898438 10.058594 -14.609375 C 10.058594 -12.320312 7.851562 -12.21875 6.992188 -12.21875 L 0 -12.21875 L 0 -0.234375 C 0 -0.128906 0.128906 0 0.261719 0 L 3.664062 0 C 3.820312 0 3.953125 -0.128906 3.953125 -0.234375 L 3.953125 -8.394531 L 6.1875 -8.394531 L 9.980469 -0.15625 C 10.007812 -0.078125 10.164062 0 10.242188 0 L 13.960938 0 C 14.167969 0 14.269531 -0.15625 14.191406 -0.339844 Z M 14.191406 -0.339844 "/></g></g></g><g fill="#000000" fill-opacity="1"><g transform="translate(157.371203, 197.149324)"><g><path d="M 11.957031 -10.347656 C 11.957031 -11.4375 11.101562 -12.320312 10.007812 -12.320312 C 8.917969 -12.320312 8.058594 -11.4375 8.058594 -10.347656 C 8.058594 -9.28125 8.917969 -8.394531 10.007812 -8.394531 C 11.101562 -8.394531 11.957031 -9.28125 11.957031 -10.347656 Z M 20.015625 -10.425781 C 20.015625 -15.597656 16.664062 -20.796875 10.035156 -20.796875 C 3.300781 -20.796875 0 -15.597656 0 -10.425781 C 0 -5.226562 3.300781 0 10.035156 0 C 16.664062 0 20.015625 -5.226562 20.015625 -10.425781 Z M 16.117188 -10.347656 C 16.117188 -6.992188 14.0625 -3.640625 10.035156 -3.640625 C 5.953125 -3.640625 3.925781 -6.992188 3.925781 -10.347656 C 3.925781 -13.75 5.953125 -17.128906 10.035156 -17.128906 C 14.0625 -17.128906 16.117188 -13.75 16.117188 -10.347656 Z M 16.117188 -10.347656 "/></g></g></g><g fill="#000000" fill-opacity="1"><g transform="translate(178.372907, 197.149324)"><g><path d="M 6.992188 -20.796875 L 0.261719 -20.796875 C 0.128906 -20.796875 0 -20.667969 0 -20.5625 L 0 -16.976562 L 6.992188 -16.976562 C 7.460938 -16.976562 10.058594 -16.84375 10.058594 -14.558594 C 10.058594 -12.269531 7.511719 -12.21875 6.992188 -12.21875 L 0 -12.21875 L 0 -0.234375 C 0 -0.128906 0.128906 0 0.261719 0 L 3.640625 0 C 3.820312 0 3.898438 -0.128906 3.898438 -0.234375 L 3.898438 -8.371094 L 6.992188 -8.371094 C 7.488281 -8.371094 14.011719 -8.449219 14.011719 -14.558594 C 14.011719 -20.667969 7.824219 -20.796875 6.992188 -20.796875 Z M 6.992188 -20.796875 "/></g></g></g><g fill="#000000" fill-opacity="1"><g transform="translate(193.084503, 197.149324)"><g><path d="M 16.324219 -0.3125 L 8.421875 -20.640625 C 8.34375 -20.847656 7.980469 -20.847656 7.902344 -20.640625 L 0.0273438 -0.3125 C -0.0507812 -0.15625 0.0507812 0 0.285156 0 L 3.847656 0 C 3.953125 0 4.082031 -0.0507812 4.105469 -0.15625 L 8.164062 -11.75 L 12.269531 -0.15625 C 12.296875 -0.0507812 12.425781 0 12.503906 0 L 16.089844 0 C 16.273438 0 16.402344 -0.15625 16.324219 -0.3125 Z M 16.324219 -0.3125 "/></g></g></g><g fill="#000000" fill-opacity="1"><g transform="translate(210.239367, 197.149324)"><g><path d="M 3.691406 -20.796875 L 0.285156 -20.796875 C 0.128906 -20.796875 0 -20.667969 0 -20.5625 L 0 -12.398438 L 3.976562 -12.398438 L 3.976562 -17 C 8.5 -17.234375 11.855469 -15.335938 11.855469 -10.398438 C 11.855469 -3.976562 6.5 -3.71875 3.976562 -3.820312 L 3.976562 -8.394531 L 0 -8.394531 L 0 -0.234375 C 0 -0.128906 0.128906 0 0.285156 0 L 3.691406 0 C 8.863281 0 15.855469 -1.507812 15.855469 -10.398438 C 15.855469 -19.625 8.761719 -20.796875 3.691406 -20.796875 Z M 3.691406 -20.796875 "/></g></g></g><g fill="#000000" fill-opacity="1"><g transform="translate(226.900373, 197.149324)"><g><path d="M 9.539062 -11.542969 C 8.058594 -12.242188 6.601562 -12.242188 6.472656 -12.242188 C 5.148438 -12.242188 3.875 -13.023438 3.875 -14.53125 C 3.875 -16.195312 5.042969 -17.050781 6.472656 -17.050781 C 7.824219 -17.050781 8.96875 -16.351562 9.019531 -14.867188 C 9.019531 -14.792969 9.148438 -14.660156 9.304688 -14.660156 L 12.554688 -14.660156 C 12.738281 -14.660156 12.867188 -14.792969 12.839844 -14.867188 C 12.789062 -18.40625 10.035156 -20.796875 6.472656 -20.796875 C 3.144531 -20.796875 0 -18.429688 0 -14.53125 C 0 -12.113281 1.222656 -10.269531 3.378906 -9.28125 C 4.886719 -8.578125 6.289062 -8.578125 6.472656 -8.578125 C 7.640625 -8.527344 9.070312 -7.589844 9.070312 -6.058594 C 9.070312 -4.679688 7.851562 -3.742188 6.472656 -3.742188 C 6.472656 -3.742188 6.472656 -3.742188 6.445312 -3.742188 L 6.445312 0 C 6.472656 0 6.472656 0 6.472656 0 C 9.800781 0 12.917969 -2.15625 12.917969 -6.058594 C 12.917969 -8.5 11.722656 -10.527344 9.539062 -11.542969 Z M 9.539062 -11.542969 "/></g></g></g><g fill="#000000" fill-opacity="1"><g transform="translate(240.468304, 197.149324)"><g><path d="M 16.585938 -0.390625 L 8.242188 -10.214844 L 16.507812 -20.40625 C 16.6875 -20.589844 16.558594 -20.796875 16.273438 -20.796875 L 12.035156 -20.796875 C 11.984375 -20.796875 11.828125 -20.742188 11.800781 -20.71875 L 3.976562 -11.101562 L 3.976562 -20.5625 C 3.976562 -20.667969 3.875 -20.796875 3.71875 -20.796875 L 0.285156 -20.796875 C 0.128906 -20.796875 0 -20.667969 0 -20.5625 L 0 -1.273438 C 0 -1.273438 5.070312 -7.019531 5.589844 -7.566406 L 11.644531 -0.078125 C 11.671875 -0.0507812 11.828125 0 11.878906 0 L 16.351562 0 C 16.609375 0 16.742188 -0.183594 16.585938 -0.390625 Z M 16.585938 -0.390625 "/></g></g></g><g fill="#000000" fill-opacity="1"><g transform="translate(257.961067, 197.149324)"><g><path d="M 11.800781 -16.820312 L 9.617188 -13.777344 L 4.679688 -20.71875 C 4.628906 -20.769531 4.496094 -20.796875 4.417969 -20.796875 L 0.3125 -20.796875 C 0.0273438 -20.796875 -0.078125 -20.589844 0.0507812 -20.40625 C 2.574219 -16.871094 5.148438 -13.335938 7.640625 -9.773438 L 7.640625 -0.234375 C 7.640625 -0.128906 7.746094 0 7.929688 0 L 11.332031 0 C 11.488281 0 11.621094 -0.128906 11.621094 -0.234375 L 11.621094 -9.773438 L 16.636719 -16.820312 Z M 11.800781 -16.820312 "/></g></g></g><g fill="#000000" fill-opacity="1"><g transform="translate(275.42784, 197.149324)"><g><path d="M 8.472656 -3.5625 L 6.394531 -3.5625 L 6.394531 -20.796875 L 2.417969 -20.796875 L 2.417969 -3.5625 L 0.285156 -3.5625 C 0.128906 -3.5625 0 -3.457031 0 -3.328125 L 0 -0.234375 C 0 -0.128906 0.128906 0 0.285156 0 L 8.472656 0 C 8.65625 0 8.761719 -0.128906 8.761719 -0.234375 L 8.761719 -3.328125 C 8.761719 -3.457031 8.65625 -3.5625 8.472656 -3.5625 Z M 8.472656 -3.5625 "/></g></g></g><g fill="#000000" fill-opacity="1"><g transform="translate(267.685001, 166.611803)"><g><path d="M 0.984375 -0.375 L -2.140625 -8.65625 L 2.21875 -10.296875 L 3.828125 -9.546875 L 4.890625 -6.703125 L 4.1875 -5.078125 L 0.84375 -3.8125 L 2 -0.75 Z M 0.5 -4.734375 L 3.375 -5.828125 L 3.765625 -6.6875 L 2.953125 -8.828125 L 2.09375 -9.21875 L -0.78125 -8.125 Z M 0.5 -4.734375 "/></g></g></g><g fill="#000000" fill-opacity="1"><g transform="translate(274.925921, 163.865255)"><g><path d="M 2.078125 -0.09375 L 0.75 -1.296875 L 0.46875 -7.59375 L 1.671875 -8.921875 L 5.84375 -9.109375 L 7.171875 -7.90625 L 7.453125 -1.609375 L 6.25 -0.28125 Z M 2.515625 -1.078125 L 5.71875 -1.234375 L 6.34375 -1.921875 L 6.09375 -7.515625 L 5.40625 -8.125 L 2.203125 -7.96875 L 1.578125 -7.3125 L 1.828125 -1.71875 Z M 2.515625 -1.078125 "/></g></g></g><g fill="#000000" fill-opacity="1"><g transform="translate(283.611944, 163.547113)"><g><path d="M 1 0.296875 L 3.46875 -8.1875 L 8.109375 -6.84375 L 8.953125 -5.296875 L 8.171875 -2.59375 L 6.625 -1.71875 L 6.59375 -1.734375 L 7.140625 2.078125 L 5.984375 1.734375 L 5.453125 -2.0625 L 3.046875 -2.765625 L 2.0625 0.59375 Z M 3.3125 -3.703125 L 6.421875 -2.796875 L 7.234375 -3.25 L 7.8125 -5.25 L 7.375 -6.0625 L 4.265625 -6.96875 Z M 3.3125 -3.703125 "/></g></g></g><g fill="#000000" fill-opacity="1"><g transform="translate(291.790175, 166.11064)"><g><path d="M 2.328125 1.53125 L 6.65625 -5.015625 L 4.453125 -6.453125 L 5 -7.28125 L 10.296875 -3.796875 L 9.75 -2.96875 L 7.5625 -4.40625 L 3.234375 2.140625 Z M 2.328125 1.53125 "/></g></g></g><g fill="#000000" fill-opacity="1"><g transform="translate(297.760869, 170.123316)"><g><path d="M 0.671875 0.796875 L 7.40625 -4.9375 L 11.109375 -0.59375 L 10.34375 0.046875 L 7.359375 -3.46875 L 5.1875 -1.609375 L 7.8125 1.46875 L 7.046875 2.125 L 4.421875 -0.953125 L 1.390625 1.625 Z M 0.671875 0.796875 "/></g></g></g><g fill="#000000" fill-opacity="1"><g transform="translate(302.575668, 175.70968)"><g><path d="M 0.796875 1.921875 L 1.484375 0.265625 L 7.296875 -2.1875 L 8.953125 -1.5 L 10.578125 2.34375 L 9.890625 4 L 4.078125 6.453125 L 2.421875 5.765625 Z M 1.875 1.984375 L 3.125 4.9375 L 3.984375 5.296875 L 9.140625 3.125 L 9.5 2.265625 L 8.25 -0.6875 L 7.390625 -1.046875 L 2.234375 1.125 Z M 1.875 1.984375 "/></g></g></g><g fill="#000000" fill-opacity="1"><g transform="translate(305.789531, 183.856569)"><g><path d="M 0.09375 1.046875 L 8.90625 0.234375 L 9.015625 1.3125 L 1.21875 2.03125 L 1.625 6.46875 L 0.609375 6.5625 Z M 0.09375 1.046875 "/></g></g></g><g fill="#000000" fill-opacity="1"><g transform="translate(306.267468, 191.196845)"><g><path d="M -0.109375 0.734375 L 0.890625 0.890625 L 0.71875 1.96875 L 7.46875 3.015625 L 7.640625 1.9375 L 8.625 2.078125 L 8.125 5.296875 L 7.140625 5.15625 L 7.3125 4.09375 L 0.5625 3.046875 L 0.390625 4.109375 L -0.609375 3.953125 Z M -0.109375 0.734375 "/></g></g></g><g fill="#000000" fill-opacity="1"><g transform="translate(305.61647, 196.494543)"><g><path d="M -0.859375 1.890625 L 0.828125 1.25 L 6.578125 3.859375 L 7.203125 5.546875 L 5.484375 9.34375 L 3.8125 9.96875 L -1.9375 7.359375 L -2.578125 5.6875 Z M -0.1875 2.734375 L -1.5 5.65625 L -1.171875 6.515625 L 3.921875 8.828125 L 4.796875 8.5 L 6.109375 5.578125 L 5.796875 4.71875 L 0.703125 2.40625 Z M -0.1875 2.734375 "/></g></g></g></svg>
